# xmcd
#
# Track frame offsets:
#       150
#       20872
#       34648
#       54662
#       74720
#       98705
#       124320
#       142902
#       156654
#       182991
#       197347
#       214127
#       232989
#       259095
#
# Disc length: 3708 seconds
#
# Revision: 0
# Processed by: cddbd v1.5PL3 Copyright (c) Steve Scherf et al.
# Submitted via: WaveLab 4.01
#
DISCID=d20e7a0e
DTITLE=ben harper  - diamonds on the inside
DYEAR=1900
DGENRE=
TTITLE0=Piste 01
TTITLE1=Piste 02
TTITLE2=Piste 03
TTITLE3=Piste 04
TTITLE4=Piste 05
TTITLE5=Piste 06
TTITLE6=Piste 07
TTITLE7=Piste 08
TTITLE8=Piste 09
TTITLE9=Piste 10
TTITLE10=Piste 11
TTITLE11=Piste 12
TTITLE12=Piste 13
TTITLE13=Piste 14
EXTD=
EXTT0=
EXTT1=
EXTT2=
EXTT3=
EXTT4=
EXTT5=
EXTT6=
EXTT7=
EXTT8=
EXTT9=
EXTT10=
EXTT11=
EXTT12=
EXTT13=
PLAYORDER=
